<?xml version="1.0" encoding="UTF-8" standalone="no"?>
<!-- Created with Inkscape (http://www.inkscape.org/) -->

<svg
   xmlns:dc="http://purl.org/dc/elements/1.1/"
   xmlns:cc="http://creativecommons.org/ns#"
   xmlns:rdf="http://www.w3.org/1999/02/22-rdf-syntax-ns#"
   xmlns:svg="http://www.w3.org/2000/svg"
   xmlns="http://www.w3.org/2000/svg"
   xmlns:sodipodi="http://sodipodi.sourceforge.net/DTD/sodipodi-0.dtd"
   xmlns:inkscape="http://www.inkscape.org/namespaces/inkscape"
   width="33.866665mm"
   height="33.866665mm"
   viewBox="0 0 33.866665 33.866665"
   version="1.1"
   id="svg8"
   inkscape:version="0.92.2 (unknown)"
   sodipodi:docname="icon.svg">
  <defs
     id="defs2" />
  <sodipodi:namedview
     id="base"
     pagecolor="#ffffff"
     bordercolor="#666666"
     borderopacity="1.0"
     inkscape:pageopacity="0.0"
     inkscape:pageshadow="2"
     inkscape:zoom="3.959798"
     inkscape:cx="91.859604"
     inkscape:cy="69.779164"
     inkscape:document-units="mm"
     inkscape:current-layer="layer1"
     showgrid="false"
     inkscape:window-width="1600"
     inkscape:window-height="841"
     inkscape:window-x="0"
     inkscape:window-y="0"
     inkscape:window-maximized="1"
     fit-margin-top="0"
     fit-margin-left="0"
     fit-margin-right="0"
     fit-margin-bottom="0"
     inkscape:snap-page="true" />
  <metadata
     id="metadata5">
    <rdf:RDF>
      <cc:Work
         rdf:about="">
        <dc:format>image/svg+xml</dc:format>
        <dc:type
           rdf:resource="http://purl.org/dc/dcmitype/StillImage" />
        <dc:title></dc:title>
      </cc:Work>
    </rdf:RDF>
  </metadata>
  <g
     inkscape:label="Layer 1"
     inkscape:groupmode="layer"
     id="layer1"
     transform="translate(-46.670608,-159.76628)">
    <rect
       style="opacity:1;fill:#3c968d;fill-opacity:1;fill-rule:nonzero;stroke:none;stroke-width:1;stroke-linecap:butt;stroke-linejoin:round;stroke-miterlimit:4;stroke-dasharray:none;stroke-dashoffset:0;stroke-opacity:1;paint-order:normal"
       id="rect893"
       width="33.866665"
       height="33.866665"
       x="46.670609"
       y="159.76628"
       rx="0"
       ry="0"
       inkscape:export-xdpi="96.000008"
       inkscape:export-ydpi="96.000008" />
    <path
       style="fill:#ffffff;fill-opacity:1;fill-rule:evenodd;stroke:none;stroke-width:1;stroke-linecap:butt;stroke-linejoin:round;stroke-miterlimit:4;stroke-dasharray:none;stroke-opacity:1"
       d="m 63.762787,166.24686 a 0.68989064,0.68989064 0 0 0 -0.09126,0.006 l -7.423953,0.83273 a 0.68989064,0.68989064 0 0 0 -0.592463,0.52544 c -1.571508,6.62635 -0.172383,11.29844 1.659749,14.26757 1.832131,2.96913 4.122993,4.28198 4.122993,4.28198 a 0.68989064,0.68989064 0 0 0 0.84342,-1.073 c -1.099605,-1.1676 -1.429596,-3.64235 -1.35532,-5.83905 0.06661,-1.97036 0.360292,-3.3061 0.427771,-3.63462 l 3.618937,-0.84129 a 0.68989064,0.68989064 0 0 0 0.525444,-0.77568 l -1.069425,-7.16231 a 0.68989064,0.68989064 0 0 0 -0.665896,-0.58747 z m -2.497465,3.43856 a 0.68989064,0.68989064 0 0 1 0.578915,0.32012 l 0.573925,0.90545 a 0.68989064,0.68989064 0 0 1 -0.239551,0.97031 l -2.902421,1.65476 a 0.68989064,0.68989064 0 0 1 -1.03164,-0.61456 l 0.04064,-1.99697 a 0.68989064,0.68989064 0 0 1 0.525444,-0.6545 l 2.285005,-0.56607 a 0.68989064,0.68989064 0 0 1 0.169683,-0.0185 z"
       id="path838"
       inkscape:connector-curvature="0" />
    <path
       inkscape:connector-curvature="0"
       id="path896"
       d="m 71.859785,174.45212 c -0.01966,-1e-5 -0.0393,0.001 -0.05877,0.004 l -4.781374,0.53631 c -0.185714,0.0214 -0.338232,0.15657 -0.381574,0.33841 -1.012125,4.26768 -0.111022,7.27672 1.068956,9.18899 1.179978,1.91225 2.6554,2.7578 2.6554,2.7578 0.443719,0.25327 0.894128,-0.31974 0.543203,-0.69108 -0.708197,-0.75198 -0.920726,-2.34584 -0.872889,-3.76062 0.0429,-1.269 0.232044,-2.12928 0.275504,-2.34086 l 2.330766,-0.54183 c 0.225917,-0.0526 0.373311,-0.27024 0.33841,-0.49958 l -0.68876,-4.61285 c -0.032,-0.2136 -0.212957,-0.37324 -0.428869,-0.37837 z"
       style="fill:#ffffff;fill-opacity:1;fill-rule:evenodd;stroke:none;stroke-width:1;stroke-linecap:butt;stroke-linejoin:round;stroke-miterlimit:4;stroke-dasharray:none;stroke-opacity:1"
       sodipodi:nodetypes="ccccsccccccccc" />
  </g>
</svg>
